<svg xmlns="http://www.w3.org/2000/svg" viewBox="0 0 1800 900" preserveAspectRatio="xMidYMid slice"><defs><linearGradient id="wall" x2="0" y2="1"><stop stop-color="#f8ead2"/><stop offset="1" stop-color="#e7c79e"/></linearGradient><linearGradient id="wood" x2="0" y2="1"><stop stop-color="#9a6845"/><stop offset="1" stop-color="#553525"/></linearGradient><radialGradient id="coffee"><stop stop-color="#8b5738"/><stop offset=".72" stop-color="#4a2a20"/><stop offset="1" stop-color="#281714"/></radialGradient><linearGradient id="cream" x2="0" y2="1"><stop stop-color="#fff8e9"/><stop offset="1" stop-color="#ead6b7"/></linearGradient><filter id="shadow"><feGaussianBlur stdDeviation="18"/></filter><filter id="soft"><feGaussianBlur stdDeviation="3"/></filter></defs><rect width="1800" height="900" fill="url(#wall)"/><g opacity=".16" stroke="#80644c" fill="none" stroke-width="5"><path d="M0 130 Q350 50 720 130 T1440 100 T1800 150"/><path d="M0 205 Q350 125 720 205 T1440 175 T1800 220"/><path d="M80 0 Q180 180 90 370"/><path d="M1660 0 Q1570 190 1680 390"/></g><g opacity=".2" fill="#68734c"><ellipse cx="110" cy="80" rx="45" ry="120" transform="rotate(-25 110 80)"/><ellipse cx="170" cy="145" rx="40" ry="105" transform="rotate(28 170 145)"/><ellipse cx="1690" cy="110" rx="45" ry="120" transform="rotate(28 1690 110)"/></g><ellipse cx="930" cy="770" rx="760" ry="125" fill="#38231b" opacity=".24" filter="url(#shadow)"/><path d="M0 570 Q450 525 900 565 T1800 545 V900 H0Z" fill="url(#wood)"/><g opacity=".18" stroke="#f2d0a4" stroke-width="7"><path d="M40 650 Q400 610 760 655 T1500 645 T1800 665"/><path d="M0 760 Q400 720 800 765 T1500 750 T1800 770"/><path d="M100 875 Q500 830 900 875 T1700 865"/></g><g transform="translate(1000 330)"><ellipse cx="0" cy="190" rx="520" ry="110" fill="#3c241b" opacity=".35" filter="url(#shadow)"/><ellipse cx="0" cy="130" rx="500" ry="125" fill="url(#cream)" stroke="#694535" stroke-width="10"/><path d="M-425 80 Q0 215 425 80 L385 190 Q0 300 -385 190Z" fill="#a87550" stroke="#694535" stroke-width="9"/><ellipse cx="0" cy="55" rx="420" ry="105" fill="#fff4df" stroke="#694535" stroke-width="9"/><ellipse cx="0" cy="35" rx="360" ry="82" fill="url(#coffee)"/><path d="M-260 15 Q-170 -30 -70 12 T120 12 T275 12" fill="none" stroke="#c99661" stroke-width="14" opacity=".7"/><path d="M-320 0 Q-270 -100 -190 -70 M-60 -20 Q-10 -120 40 -70 M180 -5 Q240 -110 300 -60" fill="none" stroke="#fff4df" stroke-width="9" opacity=".6"/><path d="M500 70 Q650 20 650 145 Q650 240 510 205" fill="none" stroke="#694535" stroke-width="14"/></g><g transform="translate(380 500)"><ellipse cx="0" cy="165" rx="310" ry="70" fill="#3c241b" opacity=".3"/><ellipse cx="0" cy="110" rx="300" ry="80" fill="#f7ead2" stroke="#6d4a38" stroke-width="8"/><ellipse cx="0" cy="78" rx="245" ry="62" fill="#5a3326"/><path d="M-230 65 Q0 10 230 65 Q205 150 0 165 Q-205 150 -230 65Z" fill="#6d4030"/><path d="M-180 65 Q0 30 180 65" fill="none" stroke="#d4a36c" stroke-width="12"/></g><g transform="translate(1420 505)"><ellipse cx="0" cy="155" rx="260" ry="65" fill="#3c241b" opacity=".3"/><path d="M-205 70 L-175 180 Q0 235 175 180 L205 70Z" fill="#8b5d42" stroke="#5c3b2d" stroke-width="9"/><ellipse cx="0" cy="70" rx="210" ry="65" fill="#f8ead2" stroke="#5c3b2d" stroke-width="9"/><ellipse cx="0" cy="48" rx="175" ry="48" fill="url(#coffee)"/><path d="M210 60 Q330 25 330 125 Q330 200 215 180" fill="none" stroke="#5c3b2d" stroke-width="14"/></g><g transform="translate(760 690)"><ellipse cx="0" cy="75" rx="270" ry="60" fill="#3c241b" opacity=".25"/><ellipse cx="0" cy="30" rx="245" ry="70" fill="#f8ead2" stroke="#6b4937" stroke-width="8"/><g transform="translate(-140 -15)"><path d="M0 0 L80 -45 L160 0 L135 55 L25 55Z" fill="#a96f45" stroke="#684434" stroke-width="7"/><path d="M15 0 L80 -30 L145 0" fill="none" stroke="#fff1d7" stroke-width="20"/><path d="M35 30 L125 30" stroke="#d4a36c" stroke-width="12"/></g><g transform="translate(10 -10)"><path d="M0 0 L85 -55 L170 0 L140 60 L25 60Z" fill="#6e3d2d" stroke="#533126" stroke-width="7"/><path d="M15 0 L85 -38 L155 0" fill="none" stroke="#f7dfbb" stroke-width="20"/><path d="M35 30 L135 30" stroke="#bd8050" stroke-width="12"/></g><g transform="translate(145 -5)"><circle cx="0" cy="0" r="48" fill="#b9784b"/><circle cx="62" cy="0" r="48" fill="#d0925d"/><circle cx="31" cy="-45" r="45" fill="#8d593e"/><circle cx="31" cy="15" r="45" fill="#c77f4f"/></g></g><g transform="translate(1450 700)"><ellipse cx="0" cy="95" rx="250" ry="55" fill="#3c241b" opacity=".25"/><ellipse cx="0" cy="40" rx="230" ry="70" fill="#f7ead2" stroke="#6b4937" stroke-width="8"/><path d="M-180 35 L-145 -65 L145 -65 L180 35 Q0 100 -180 35Z" fill="#9b633f" stroke="#674333" stroke-width="8"/><path d="M-135 -45 L135 -45 M-125 -5 L125 -5 M-110 35 L110 35" stroke="#f0c58e" stroke-width="13"/></g><g fill="#fff" opacity=".45"><circle cx="260" cy="320" r="5"/><circle cx="300" cy="285" r="3"/><circle cx="1550" cy="260" r="5"/></g></svg>